<?xml version="1.0" standalone="no"?>
<!DOCTYPE svg PUBLIC "-//W3C//DTD SVG 20010904//EN"
 "http://www.w3.org/TR/2001/REC-SVG-20010904/DTD/svg10.dtd">
<svg version="1.0" xmlns="http://www.w3.org/2000/svg"
 width="512.000000pt" height="512.000000pt" viewBox="0 0 512.000000 512.000000"
 preserveAspectRatio="xMidYMid meet">
<metadata>
Created by potrace 1.14, written by Peter Selinger 2001-2017
</metadata>
<g transform="translate(0.000000,512.000000) scale(0.100000,-0.100000)"
fill="#000000" stroke="none">
<path d="M2090 3975 c-597 -250 -1092 -458 -1102 -462 -15 -7 -14 -14 9 -70
14 -35 30 -63 37 -63 6 0 506 207 1110 460 604 253 1102 457 1106 455 4 -3 17
-31 30 -64 l22 -59 64 26 c35 15 64 32 64 38 0 25 -44 114 -56 114 -7 0 -38
-11 -69 -24 -30 -14 -57 -21 -59 -17 -3 4 -14 33 -26 64 -12 31 -27 57 -33 57
-7 -1 -500 -205 -1097 -455z"/>
<path d="M3503 4257 c-29 -13 -55 -25 -58 -28 -5 -5 182 -464 286 -701 16 -36
29 -71 29 -76 0 -5 -71 -39 -157 -75 -87 -36 -175 -73 -196 -82 l-38 -16 -20
48 c-11 26 -23 56 -27 65 -6 15 -13 14 -67 -9 -33 -14 -62 -27 -63 -28 -6 -6
43 -125 51 -125 4 0 35 11 68 24 l60 25 10 -27 c19 -55 42 -102 49 -102 6 0
511 209 517 215 2 1 -8 29 -22 63 -14 34 -25 64 -25 67 0 3 27 17 60 32 67 29
66 25 29 111 -10 23 -21 42 -23 42 -3 0 -31 -11 -62 -25 -32 -14 -60 -22 -64
-18 -6 7 -35 75 -132 308 -16 39 -38 90 -48 115 -38 90 -77 185 -83 203 -8 21
-10 21 -74 -6z"/>
<path d="M4123 4056 c-68 -28 -123 -55 -123 -61 0 -22 45 -115 55 -115 16 0
228 89 239 100 8 8 -26 105 -43 121 -3 4 -61 -17 -128 -45z"/>
<path d="M4363 4004 c-29 -13 -53 -26 -53 -30 0 -5 70 -175 130 -314 65 -152
80 -189 80 -199 0 -5 30 3 68 19 39 17 66 34 64 42 -1 7 -48 123 -105 258 -63
151 -108 246 -117 247 -8 1 -39 -9 -67 -23z"/>
<path d="M3974 3842 l-61 -27 18 -40 c10 -22 23 -52 28 -67 l10 -27 63 26 c35
15 65 28 67 30 6 4 -50 133 -58 132 -3 0 -33 -12 -67 -27z"/>
<path d="M2503 3687 c-29 -12 -53 -27 -53 -33 0 -17 51 -124 58 -123 4 0 32
13 63 27 l56 27 -24 63 c-14 34 -30 62 -36 61 -7 0 -36 -10 -64 -22z"/>
<path d="M3140 3645 c-30 -12 -56 -27 -58 -33 -2 -6 4 -24 13 -41 40 -79 40
-79 -21 -106 -31 -14 -61 -25 -66 -25 -5 0 -21 26 -34 58 -14 31 -27 58 -29
60 -3 3 -246 -96 -254 -104 -7 -6 41 -124 51 -124 5 0 64 23 130 50 67 28 125
47 129 43 4 -5 17 -33 30 -63 12 -30 23 -56 24 -58 5 -7 125 52 125 62 0 6
-11 35 -25 64 -14 30 -25 55 -25 57 0 1 29 15 64 30 l63 27 -25 64 c-14 35
-28 64 -31 63 -3 0 -31 -11 -61 -24z"/>
<path d="M4720 3536 c-34 -14 -54 -28 -52 -37 5 -22 255 -623 263 -633 7 -8
103 26 121 43 9 8 -254 644 -268 647 -5 2 -34 -7 -64 -20z"/>
<path d="M2116 3525 c-33 -14 -61 -27 -63 -29 -2 -2 8 -33 23 -68 l26 -65 64
25 c35 14 64 31 64 38 0 14 -47 124 -52 124 -2 -1 -30 -12 -62 -25z"/>
<path d="M963 3346 c-28 -12 -54 -24 -58 -27 -5 -6 32 -106 45 -122 5 -6 114
35 127 47 5 5 -50 126 -56 125 -3 0 -29 -11 -58 -23z"/>
<path d="M2670 3296 c-34 -14 -54 -28 -52 -37 3 -14 202 -501 208 -508 7 -8
124 42 124 54 0 19 -207 509 -216 512 -5 1 -34 -8 -64 -21z"/>
<path d="M4383 3243 c-69 -27 -67 -18 -25 -114 l20 -47 -68 -27 -68 -27 26
-62 c14 -33 27 -62 28 -64 2 -3 215 83 246 99 15 8 12 22 -34 132 -27 67 -53
125 -56 129 -4 3 -35 -5 -69 -19z"/>
<path d="M750 3105 l-195 -82 -26 58 c-14 32 -28 61 -30 64 -3 2 -50 -14 -106
-38 -98 -41 -100 -43 -90 -67 87 -207 153 -353 162 -356 6 -3 53 14 105 36 51
22 94 40 96 40 1 0 12 -27 24 -60 12 -33 25 -62 29 -64 3 -2 62 21 131 50 69
29 128 49 132 45 5 -4 19 -34 32 -66 13 -33 71 -174 130 -312 58 -139 106
-257 106 -261 0 -14 -251 -115 -260 -105 -4 4 -15 30 -25 56 -10 26 -22 50
-26 53 -4 2 -35 -7 -69 -20 l-61 -25 -18 42 c-10 23 -21 52 -25 65 -4 12 -11
22 -15 22 -5 0 -64 -24 -133 -52 l-125 -53 12 -36 c7 -20 20 -50 29 -66 l15
-31 -64 -27 c-36 -16 -65 -29 -65 -30 0 -4 102 -250 105 -253 4 -4 107 39 119
49 5 5 -13 61 -43 130 -29 67 -49 125 -44 130 15 15 248 108 254 101 3 -4 28
-60 55 -124 27 -65 54 -118 60 -118 6 0 91 34 189 75 99 42 184 74 190 71 6
-2 29 -46 50 -97 21 -52 44 -108 51 -125 l13 -32 -124 -51 c-68 -28 -129 -51
-134 -51 -5 0 -20 27 -32 60 -12 33 -25 60 -28 60 -9 0 -244 -99 -250 -105 -6
-7 42 -125 51 -125 5 0 63 23 129 51 67 28 124 47 128 42 4 -4 16 -29 25 -55
10 -26 22 -50 27 -54 5 -3 66 18 135 47 68 28 126 50 128 48 2 -2 27 -60 56
-129 29 -69 65 -154 81 -190 15 -36 25 -68 21 -72 -9 -9 -253 -110 -256 -106
-1 2 -13 28 -25 58 -13 30 -26 58 -30 61 -3 4 -30 -2 -59 -14 -63 -24 -62 -20
-3 -155 59 -136 89 -205 100 -234 l10 -28 57 25 c31 14 58 25 59 25 1 0 13
-27 25 -60 12 -33 26 -63 31 -65 11 -7 519 205 519 217 0 4 -11 36 -24 69
l-25 60 22 8 c40 16 361 152 364 155 2 1 -8 31 -22 66 -14 35 -24 64 -22 65 1
1 172 72 245 102 11 5 62 -91 62 -116 0 -5 -57 -33 -126 -62 -140 -59 -136
-52 -94 -146 l19 -43 133 56 c73 31 161 67 196 81 34 14 62 26 62 27 0 0 -24
59 -54 131 -30 71 -54 131 -53 132 1 1 178 75 393 165 l391 164 17 -47 c30
-82 32 -83 101 -55 33 14 59 31 59 38 -1 7 -11 37 -23 66 l-21 53 37 16 c21 9
79 33 128 54 l90 38 22 -49 c38 -83 41 -78 -94 -134 -68 -27 -123 -56 -123
-63 0 -28 50 -125 62 -120 7 3 90 38 183 77 94 40 176 74 183 77 7 3 11 11 8
17 -46 107 -80 188 -91 217 l-13 36 64 26 64 25 20 -45 c11 -25 20 -48 20 -52
0 -3 4 -12 8 -19 7 -10 21 -7 67 13 32 14 63 24 69 22 6 -3 22 -32 35 -65 l23
-60 132 55 c72 30 159 66 194 81 34 14 62 29 62 34 0 5 -23 62 -50 129 -28 66
-48 124 -45 128 3 5 28 17 56 27 28 11 53 24 56 29 2 6 -8 37 -22 69 l-25 57
55 25 c31 13 60 24 65 24 14 0 13 2 -15 67 -14 31 -24 62 -21 68 2 7 29 22 60
35 31 12 56 28 56 35 0 11 -38 104 -46 114 -4 4 -114 -38 -126 -48 -4 -3 1
-25 11 -47 38 -84 39 -81 -28 -110 -34 -15 -61 -30 -61 -35 0 -5 11 -34 25
-65 14 -32 23 -59 21 -61 -13 -13 -1293 -542 -1303 -539 -6 3 -21 32 -33 65
l-22 60 -37 -15 c-20 -9 -49 -21 -64 -26 -32 -12 -32 -13 2 -96 l21 -53 -37
-16 c-21 -8 -338 -141 -705 -294 -366 -153 -673 -281 -681 -285 -10 -4 -22 13
-42 60 -15 37 -29 66 -31 66 -2 0 -29 -11 -60 -25 -31 -14 -60 -25 -64 -25 -5
0 -15 19 -23 43 -9 23 -32 80 -52 127 -20 47 -43 101 -50 120 -7 19 -29 71
-48 115 -18 44 -159 379 -311 745 -153 366 -281 668 -285 671 -3 4 -94 -31
-201 -76z m3846 -920 c13 -31 24 -59 24 -64 0 -8 -232 -111 -249 -111 -3 0
-18 28 -32 62 l-25 63 120 52 c67 28 125 52 129 52 4 1 19 -24 33 -54z m-2643
-1027 c25 -62 47 -119 49 -127 2 -9 -40 -32 -126 -67 -71 -30 -130 -53 -131
-52 -1 2 -7 17 -13 33 -8 24 -40 100 -88 211 -5 11 214 112 247 113 10 1 30
-35 62 -111z"/>
<path d="M1513 3115 c-29 -13 -53 -28 -53 -33 0 -5 11 -35 25 -65 l24 -56 64
27 64 26 -26 63 c-14 35 -30 63 -36 62 -5 0 -34 -11 -62 -24z"/>
<path d="M2206 2944 c-33 -13 -61 -26 -64 -28 -2 -3 9 -32 24 -65 30 -68 26
-67 109 -30 l44 19 -14 40 c-7 21 -20 50 -27 63 l-13 25 -59 -24z"/>
<path d="M4042 2944 c-59 -27 -58 -24 -21 -110 22 -48 16 -47 106 -7 l41 18
-26 63 c-14 34 -30 62 -36 61 -6 0 -35 -12 -64 -25z"/>
<path d="M3458 2857 c-27 -11 -48 -25 -48 -31 1 -6 11 -36 24 -66 14 -30 22
-58 20 -61 -2 -4 -30 -16 -63 -29 l-59 -22 13 -36 c19 -54 37 -92 44 -92 8 0
243 99 249 104 2 2 -20 61 -49 130 -37 88 -58 126 -68 125 -9 -1 -37 -10 -63
-22z"/>
<path d="M4408 2793 l-56 -25 28 -66 28 -67 -126 -52 c-69 -30 -129 -50 -133
-46 -4 5 -17 33 -30 63 -12 30 -23 56 -24 57 -2 3 -127 -46 -133 -51 -1 -2 9
-29 23 -61 14 -32 24 -63 22 -69 -3 -7 -45 -28 -93 -48 -49 -20 -106 -44 -126
-52 l-37 -16 -23 61 c-13 34 -28 63 -34 65 -14 6 -126 -44 -122 -54 100 -245
103 -251 121 -246 10 3 214 88 455 189 496 208 453 176 401 298 -16 40 -37 89
-46 110 -9 20 -21 37 -27 36 -6 0 -37 -12 -68 -26z"/>
<path d="M2760 2715 c-71 -31 -73 -14 30 -255 29 -67 134 -318 156 -372 10
-27 24 -48 31 -48 7 0 37 11 68 25 l56 24 24 -56 c14 -30 25 -59 25 -64 0 -12
2 -12 69 17 34 15 61 30 61 35 0 13 -48 119 -54 119 -3 0 -31 -11 -62 -25 -32
-14 -59 -23 -61 -21 -2 2 -64 147 -137 322 -74 175 -138 319 -142 321 -5 1
-34 -9 -64 -22z"/>
<path d="M2488 2603 l-56 -25 26 -62 c14 -33 26 -62 27 -63 1 -2 31 9 67 24
l67 26 -21 51 c-11 28 -22 57 -25 64 -7 16 -18 14 -85 -15z"/>
<path d="M1925 2519 c-27 -11 -54 -24 -58 -28 -13 -13 39 -126 57 -123 8 1 37
13 64 25 l50 22 -25 63 c-14 34 -28 62 -32 61 -3 0 -28 -9 -56 -20z"/>
<path d="M1772 2150 c-35 -15 -64 -30 -64 -34 0 -7 42 -117 48 -125 3 -4 134
50 134 55 0 1 -12 31 -27 66 l-28 65 -63 -27z"/>
<path d="M2403 2106 c-28 -12 -54 -24 -58 -27 -5 -6 32 -106 45 -122 5 -6 114
35 127 47 5 5 -50 126 -56 125 -3 0 -29 -11 -58 -23z"/>
<path d="M2065 1813 c-33 -14 -61 -26 -62 -27 -3 -2 46 -128 51 -133 7 -7 126
52 125 61 0 6 -13 36 -27 67 l-27 56 -60 -24z"/>
<path d="M725 1713 c-33 -14 -62 -27 -64 -29 -5 -5 37 -114 49 -127 8 -10 130
43 129 57 0 6 -13 36 -27 67 l-27 56 -60 -24z"/>
</g>
</svg>
