<?xml version="1.0" standalone="no"?>
<!DOCTYPE svg PUBLIC "-//W3C//DTD SVG 20010904//EN"
 "http://www.w3.org/TR/2001/REC-SVG-20010904/DTD/svg10.dtd">
<svg version="1.0" xmlns="http://www.w3.org/2000/svg"
 width="512.000000pt" height="512.000000pt" viewBox="0 0 512.000000 512.000000"
 preserveAspectRatio="xMidYMid meet">
<metadata>
Created by potrace 1.11, written by Peter Selinger 2001-2013
</metadata>
<g transform="translate(0.000000,512.000000) scale(0.100000,-0.100000)"
fill="#000000" stroke="none">
<path d="M2315 5109 c-556 -57 -1079 -290 -1476 -657 -454 -418 -720 -922
-816 -1542 -21 -142 -25 -528 -5 -665 59 -415 188 -761 406 -1095 178 -272
455 -548 726 -726 334 -218 683 -347 1095 -406 118 -17 512 -17 630 0 598 85
1094 331 1502 743 404 409 641 894 725 1484 17 118 17 512 0 630 -96 677 -410
1242 -927 1671 -343 284 -783 476 -1255 549 -126 19 -477 28 -605 14z m343
-1031 l2 -438 318 -2 317 -3 3 -304 c2 -216 -1 -308 -9 -317 -9 -11 -71 -14
-320 -14 l-309 0 0 -692 c0 -598 2 -699 16 -747 20 -71 58 -127 113 -166 40
-28 49 -30 129 -30 77 0 94 4 146 30 37 19 81 54 122 98 35 38 69 67 76 65 7
-3 76 -137 155 -299 l142 -294 -62 -59 c-147 -139 -336 -247 -497 -286 -106
-25 -278 -27 -388 -4 -313 64 -575 305 -681 624 -55 167 -54 156 -58 988 l-4
772 -143 0 c-109 0 -146 3 -155 14 -8 9 -11 101 -9 317 l3 304 153 3 152 3 0
433 c0 238 3 436 7 439 4 4 180 6 392 5 l386 -3 3 -437z"/>
</g>
</svg>
